<svg width="520" height="240" viewBox="0 0 520 240" fill="none" xmlns="http://www.w3.org/2000/svg">
<path d="M159.4 100.5C151.1 100.5 145.6 105.6 145.6 113.8V126.1C145.6 134.3 151.1 139.4 159.4 139.4C167.5 139.4 172.1 135.5 173 128.8C173.2 128.1 172.7 127.3 171.9 127.2C171.8 127.1 171.6 127.1 171.5 127.1H166.3C165.3 127.1 164.4 127.8 164.2 128.8C163.7 130.9 162.2 132.4 159.3 132.4C156.4 132.4 154.2 130.8 154.2 127V122H171.5C172.4 122 173.2 121.3 173.2 120.4V120.3V113.2C173.2 105.6 167.5 100.5 159.4 100.5ZM164.4 115H154.3V112.9C154.3 109.6 155.9 107.5 159.4 107.5C162.9 107.5 164.5 109.6 164.5 112.9C164.4 112.9 164.4 115 164.4 115ZM196 100.5C187.3 100.5 182.2 104.7 182.2 114.7V125.2C182.2 135.1 187.3 139.4 196 139.4C204.7 139.4 209.8 135.2 209.8 125.2V114.7C209.9 104.8 204.7 100.5 196 100.5ZM201.1 127.4C201.1 130.3 199 131.8 196 131.8C193 131.8 190.9 130.3 190.9 127.4V112.5C190.9 109.6 193 108.1 196 108.1C199 108.1 201.1 109.6 201.1 112.5V127.4ZM126.8 100.6C123.1 100.6 120.1 102.1 117.4 104.5V103L117.3 102.9C117.3 102 116.6 101.2 115.7 101.2H110.7C109.8 101.2 109 101.9 109 102.8V102.9V137.1C109 138 109.7 138.8 110.6 138.8H110.7H116C116.9 138.8 117.7 138.1 117.7 137.2V137.1V113.2C117.7 109.9 119.6 107.7 122.8 107.7C126 107.7 127.9 109.9 127.9 113.2V137.1C128 138.1 128.7 138.9 129.7 138.9H134.9C135.8 138.9 136.6 138.2 136.6 137.3V137.2V110.9C136.6 103.8 132.1 100.6 126.8 100.6Z" fill="#0098D8"/>
<path d="M330.699 100.498C322.399 100.498 316.899 105.598 316.899 113.798V126.098C316.899 134.298 322.399 139.398 330.699 139.398C338.799 139.398 343.399 135.498 344.299 128.798C344.499 128.098 343.999 127.298 343.199 127.198C343.099 127.098 342.899 127.098 342.799 127.098H337.599C336.599 127.098 335.699 127.798 335.499 128.798C334.999 130.898 333.499 132.398 330.599 132.398C327.699 132.398 325.499 130.798 325.499 126.998V121.998H342.799C343.699 121.998 344.499 121.298 344.499 120.398V120.298V113.198C344.399 105.598 338.699 100.498 330.699 100.498ZM335.699 114.998H325.499V112.898H325.599C325.599 109.598 327.199 107.498 330.699 107.498C334.199 107.498 335.799 109.598 335.799 112.898L335.699 114.998ZM367.099 100.498C358.799 100.498 353.299 105.598 353.299 113.798V126.098C353.299 134.298 358.799 139.398 367.099 139.398C375.199 139.398 379.799 135.498 380.699 128.798C380.899 128.098 380.399 127.298 379.599 127.198C379.499 127.098 379.299 127.098 379.199 127.098H373.999C372.999 127.098 372.099 127.798 371.899 128.798C371.399 130.898 369.899 132.398 366.999 132.398C364.099 132.398 361.899 130.798 361.899 126.998V121.998H379.199C380.099 121.998 380.899 121.298 380.899 120.398V120.298V113.198C380.999 105.598 375.199 100.498 367.099 100.498ZM372.199 114.998H361.999V112.898H362.099C362.099 109.598 363.699 107.498 367.199 107.498C370.699 107.498 372.299 109.598 372.299 112.898L372.199 114.998ZM244.799 125.098H239.499C238.499 124.998 237.699 125.798 237.599 126.698V127.398C237.599 130.298 235.499 131.798 232.499 131.798C229.499 131.798 227.399 130.298 227.399 127.398V112.498C227.399 109.598 229.499 108.098 232.499 108.098C235.499 108.098 237.599 109.598 237.599 112.498C237.699 113.498 238.399 114.198 239.399 114.098H239.499H244.699C245.899 114.098 246.199 113.298 246.199 112.298C245.499 103.998 240.499 100.398 232.499 100.398C223.799 100.398 218.699 104.698 218.699 114.598V125.098C218.699 135.098 223.799 139.298 232.499 139.298C240.699 139.298 245.699 135.498 246.299 126.698C246.399 125.898 245.999 125.098 244.799 125.098ZM308.299 100.598C304.999 101.098 302.799 102.898 300.999 106.198H300.899V102.998C300.899 102.098 300.199 101.298 299.299 101.298H299.199H294.099C293.199 101.298 292.399 101.998 292.399 102.898V102.998V137.198C292.399 138.098 293.099 138.898 293.999 138.898H294.099H299.399C300.299 138.898 301.099 138.198 301.099 137.298V137.198V113.198C300.999 110.998 302.799 109.098 305.099 109.098C305.199 109.098 305.299 109.098 305.399 109.098C306.299 109.098 307.199 109.298 307.999 109.498C308.099 109.598 308.199 109.598 308.199 109.598C308.799 109.898 309.599 109.498 309.799 108.898C309.899 108.698 309.899 108.598 309.899 108.398V102.198C309.999 101.498 309.499 100.798 308.699 100.698C308.499 100.498 308.399 100.498 308.299 100.598ZM407.299 100.598C403.999 101.098 401.799 102.898 399.999 106.198H399.899V102.998C399.899 102.098 399.199 101.298 398.299 101.298H398.199H393.099C392.199 101.298 391.399 101.998 391.399 102.898V102.998V137.198C391.399 138.098 392.099 138.898 392.999 138.898H393.099H398.399C399.299 138.898 400.099 138.198 400.099 137.298V137.198V113.198C399.999 110.998 401.799 109.098 404.099 109.098C404.199 109.098 404.299 109.098 404.399 109.098C405.299 109.098 406.199 109.298 406.999 109.498C407.099 109.598 407.199 109.598 407.199 109.598C407.799 109.898 408.599 109.498 408.799 108.898C408.899 108.698 408.899 108.598 408.899 108.398V102.198C408.999 101.398 408.399 100.698 407.699 100.698C407.499 100.498 407.399 100.598 407.299 100.598ZM281.999 126.098V111.898C281.999 105.198 278.499 100.498 269.199 100.498C262.699 100.498 256.799 103.398 255.499 110.398C255.399 111.298 255.799 112.198 256.999 112.198H261.999C263.099 112.298 264.099 111.598 264.299 110.498C264.999 108.598 266.799 107.498 268.799 107.498C271.299 107.498 273.299 108.798 273.299 111.998V114.098L261.899 118.098C256.399 120.098 254.599 124.098 254.599 127.898C254.599 135.398 259.599 139.498 268.299 139.498C276.999 139.498 281.999 135.498 281.999 127.898H281.899V126.098H281.999ZM273.299 127.898C273.299 130.898 271.299 132.698 268.299 132.698C265.299 132.698 263.299 130.898 263.299 127.898C263.199 125.798 264.599 123.898 266.699 123.198C268.499 122.598 273.299 120.898 273.299 120.898V127.898Z" fill="#231815"/>
<path d="M418.298 97.4C417.498 97.4 416.798 97.1 416.198 96.5C414.998 95.3 414.998 93.4 416.198 92.3L427.498 81C428.098 80.4 428.798 80.1 429.598 80.1H458.698C461.098 80.1 462.998 78.2 462.998 75.9C462.998 75.9 462.998 75.9 462.998 75.8V36.3C462.998 33.9 461.098 32 458.798 32C458.798 32 458.798 32 458.698 32H383.198C380.798 32 378.898 33.9 378.898 36.2C378.898 36.2 378.898 36.2 378.898 36.3V75.8C378.898 78.2 380.798 80.1 383.098 80.1C383.098 80.1 383.098 80.1 383.198 80.1H412.298C413.898 80.1 415.298 81.5 415.298 83.1C415.298 84.7 413.898 86.1 412.298 86.1H383.198C377.498 86.1 372.898 81.5 372.898 75.8V36.3C372.898 30.6 377.498 26 383.198 26H458.598C464.298 26 468.898 30.6 468.898 36.3V75.8C468.898 81.5 464.298 86.1 458.598 86.1H430.798L420.398 96.6C419.898 97.1 419.098 97.4 418.298 97.4Z" fill="#0098D8"/>
<path d="M214.699 165.199H219.699C219.699 165.899 219.599 166.699 219.299 167.399C218.899 168.699 217.899 169.599 216.699 170.099C215.999 170.299 215.199 170.399 214.499 170.399C213.599 170.499 212.699 170.199 211.899 169.799C211.199 169.399 210.599 168.799 210.199 168.199C209.699 167.499 209.399 166.699 209.199 165.899C208.999 165.099 208.899 164.099 208.899 163.199C208.899 162.299 208.999 161.399 209.199 160.499C209.399 159.699 209.699 158.899 210.199 158.199C210.599 157.499 211.299 156.899 211.899 156.599C212.699 156.199 213.599 155.999 214.499 155.999C215.099 155.999 215.699 156.099 216.199 156.199C216.699 156.299 217.199 156.599 217.699 156.899C218.199 157.199 218.499 157.599 218.799 158.099C219.099 158.599 219.299 159.199 219.399 159.699H222.599C222.499 158.699 222.199 157.699 221.699 156.899C221.199 156.099 220.599 155.399 219.899 154.899C219.199 154.399 218.399 153.899 217.499 153.699C216.499 153.399 215.599 153.299 214.599 153.299C213.299 153.299 211.999 153.599 210.799 154.099C209.699 154.599 208.799 155.299 207.999 156.199C207.299 157.199 206.699 158.199 206.299 159.299C205.499 161.699 205.499 164.399 206.299 166.899C206.699 168.099 207.299 169.099 207.999 169.999C208.699 170.899 209.699 171.599 210.799 172.099C211.999 172.599 213.199 172.899 214.599 172.899C215.699 172.899 216.699 172.699 217.599 172.299C218.599 171.799 219.499 171.099 220.199 170.199L220.699 172.399H222.799V162.599H214.799L214.699 165.199ZM244.899 167.599C244.899 166.999 244.799 166.299 244.599 165.699C244.399 165.299 244.199 164.899 243.899 164.499C243.599 164.199 243.399 163.999 242.999 163.799C242.699 163.699 242.399 163.599 242.099 163.499V163.399C242.399 163.299 242.599 163.199 242.799 163.099C243.199 162.899 243.499 162.599 243.899 162.299C244.299 161.899 244.599 161.399 244.799 160.899C245.099 160.199 245.199 159.399 245.199 158.699C245.299 157.299 244.699 155.899 243.699 154.999C242.599 154.099 241.099 153.699 238.999 153.699H230.099V172.599H233.399V164.899H238.199C238.799 164.799 239.499 164.999 240.099 165.199C240.599 165.399 240.999 165.699 241.299 166.099C241.599 166.599 241.799 167.099 241.899 167.599C241.999 168.299 242.099 169.099 242.099 169.799C242.099 170.299 242.099 170.799 242.199 171.199C242.299 171.599 242.399 172.099 242.599 172.499H246.099C245.699 171.999 245.399 171.299 245.299 170.599C244.999 169.599 244.899 168.599 244.899 167.599ZM241.099 161.599C240.399 162.099 239.599 162.399 238.699 162.299H233.299V156.399H238.599C238.999 156.399 239.399 156.499 239.799 156.499C240.199 156.599 240.499 156.699 240.899 156.899C241.199 157.099 241.499 157.399 241.599 157.799C241.799 158.299 241.899 158.799 241.899 159.299C241.999 160.199 241.699 160.999 241.099 161.599ZM266.099 156.199C265.399 155.299 264.399 154.599 263.299 154.099C262.099 153.599 260.899 153.299 259.499 153.299C256.999 153.199 254.599 154.299 252.899 156.199C252.199 157.199 251.599 158.199 251.199 159.299C250.399 161.699 250.399 164.399 251.199 166.899C251.599 168.099 252.199 169.099 252.899 169.999C253.599 170.899 254.599 171.599 255.699 172.099C258.099 173.199 260.799 173.199 263.199 172.099C264.299 171.599 265.199 170.899 265.999 169.999C266.699 169.099 267.399 167.999 267.699 166.899C268.099 165.699 268.299 164.399 268.299 163.099C268.299 161.799 268.099 160.599 267.699 159.299C267.499 158.199 266.899 157.099 266.099 156.199ZM264.899 165.799C264.699 166.599 264.399 167.399 263.899 168.099C263.499 168.799 262.799 169.399 262.199 169.699C261.399 170.099 260.499 170.299 259.599 170.299C258.699 170.399 257.799 170.099 256.999 169.699C256.299 169.299 255.699 168.699 255.299 168.099C254.799 167.399 254.499 166.599 254.299 165.799C254.099 164.999 253.999 163.999 253.999 163.099C253.999 162.199 254.099 161.299 254.299 160.399C254.499 159.599 254.799 158.799 255.299 158.099C255.699 157.399 256.399 156.799 256.999 156.499C257.799 156.099 258.699 155.899 259.599 155.899C260.499 155.799 261.399 156.099 262.199 156.499C262.899 156.899 263.499 157.499 263.899 158.099C264.399 158.799 264.699 159.599 264.899 160.399C265.099 161.199 265.199 162.199 265.199 163.099C265.199 164.099 265.099 164.999 264.899 165.799ZM287.199 164.699C287.199 165.299 287.099 165.999 287.099 166.599C286.999 167.199 286.799 167.799 286.599 168.399C286.299 168.899 285.799 169.399 285.299 169.699C283.699 170.299 281.899 170.299 280.299 169.699C279.699 169.399 279.299 168.999 278.999 168.399C278.699 167.899 278.499 167.299 278.499 166.599C278.499 165.899 278.399 165.299 278.399 164.699V153.799H275.099V165.799C274.999 166.899 275.299 167.999 275.599 168.999C275.999 169.799 276.499 170.599 277.199 171.199C277.899 171.799 278.699 172.299 279.599 172.599C280.699 172.899 281.699 172.999 282.799 172.999C283.899 173.099 284.999 172.899 285.999 172.599C286.899 172.299 287.699 171.899 288.399 171.199C289.099 170.599 289.699 169.799 289.999 168.999C290.399 167.999 290.599 166.899 290.499 165.799V153.799H287.199V164.699ZM312.199 157.699C311.999 156.999 311.699 156.399 311.199 155.799C310.699 155.199 309.999 154.699 309.199 154.399C308.099 153.999 306.999 153.799 305.899 153.799H297.599V172.599H300.899V165.399H305.899C306.999 165.499 308.099 165.199 309.199 164.799C309.899 164.499 310.599 163.999 311.199 163.399C311.699 162.899 311.999 162.199 312.199 161.499C312.399 160.899 312.499 160.299 312.499 159.599C312.499 158.899 312.399 158.299 312.199 157.699ZM308.899 160.999C308.699 161.399 308.399 161.699 308.099 161.999C307.799 162.299 307.399 162.399 306.999 162.499C306.599 162.599 306.299 162.699 305.899 162.699H301.099V156.499H305.999C306.399 156.499 306.799 156.499 307.199 156.599C307.599 156.699 307.899 156.899 308.199 157.099C308.499 157.399 308.699 157.699 308.899 158.099C309.099 158.599 309.199 159.099 309.199 159.599C309.199 159.999 309.099 160.499 308.899 160.999Z" fill="#231815"/>
</svg>
