<svg width="140" height="58" viewBox="0 0 140 58" fill="none" xmlns="http://www.w3.org/2000/svg">
<g clip-path="url(#clip0_2006_20255)">
<path d="M19.643 29.3867C16.4152 29.3867 14.2763 31.3701 14.2763 34.5589V39.3423C14.2763 42.5312 16.4152 44.5145 19.643 44.5145C22.793 44.5145 24.5819 42.9978 24.9319 40.3923C25.0096 40.1201 24.8152 39.8089 24.5041 39.7701C24.4652 39.7312 24.3874 39.7312 24.3485 39.7312H22.3263C21.9374 39.7312 21.5874 40.0034 21.5096 40.3923C21.3152 41.2089 20.7319 41.7923 19.6041 41.7923C18.4763 41.7923 17.6207 41.1701 17.6207 39.6923V37.7478H24.3485C24.6985 37.7478 25.0096 37.4756 25.0096 37.1256V37.0867V34.3256C25.0096 31.3701 22.793 29.3867 19.643 29.3867ZM21.5874 35.0256H17.6596V34.2089C17.6596 32.9256 18.2819 32.1089 19.643 32.1089C21.0041 32.1089 21.6263 32.9256 21.6263 34.2089C21.5874 34.2089 21.5874 35.0256 21.5874 35.0256ZM33.8763 29.3867C30.493 29.3867 28.5096 31.0201 28.5096 34.9089V38.9923C28.5096 42.8423 30.493 44.5145 33.8763 44.5145C37.2596 44.5145 39.243 42.8812 39.243 38.9923V34.9089C39.2819 31.0589 37.2596 29.3867 33.8763 29.3867ZM35.8596 39.8478C35.8596 40.9756 35.043 41.5589 33.8763 41.5589C32.7096 41.5589 31.893 40.9756 31.893 39.8478V34.0534C31.893 32.9256 32.7096 32.3423 33.8763 32.3423C35.043 32.3423 35.8596 32.9256 35.8596 34.0534V39.8478ZM6.96519 29.4256C5.5263 29.4256 4.35964 30.0089 3.30964 30.9423V30.3589L3.27075 30.3201C3.27075 29.9701 2.99852 29.6589 2.64852 29.6589H0.70408C0.35408 29.6589 0.0429688 29.9312 0.0429688 30.2812V30.3201V43.6201C0.0429688 43.9701 0.315191 44.2812 0.665191 44.2812H0.70408H2.76519C3.11519 44.2812 3.4263 44.0089 3.4263 43.6589V43.6201V34.3256C3.4263 33.0423 4.16519 32.1867 5.40964 32.1867C6.65408 32.1867 7.39297 33.0423 7.39297 34.3256V43.6201C7.43186 44.0089 7.70408 44.3201 8.09297 44.3201H10.1152C10.4652 44.3201 10.7763 44.0478 10.7763 43.6978V43.6589V33.4312C10.7763 30.6701 9.0263 29.4256 6.96519 29.4256Z" fill="#0098D8"/>
<path d="M86.2587 29.3865C83.0309 29.3865 80.892 31.3699 80.892 34.5588V39.3421C80.892 42.531 83.0309 44.5143 86.2587 44.5143C89.4087 44.5143 91.1976 42.9977 91.5476 40.3921C91.6253 40.1199 91.4309 39.8088 91.1198 39.7699C91.0809 39.731 91.0031 39.731 90.9642 39.731H88.942C88.5531 39.731 88.2031 40.0032 88.1254 40.3921C87.9309 41.2088 87.3476 41.7921 86.2198 41.7921C85.092 41.7921 84.2365 41.1699 84.2365 39.6921V37.7477H90.9642C91.3142 37.7477 91.6254 37.4754 91.6254 37.1254V37.0865V34.3254C91.5865 31.3699 89.3698 29.3865 86.2587 29.3865ZM88.2031 35.0254H84.2365V34.2088H84.2753C84.2753 32.9254 84.8976 32.1088 86.2587 32.1088C87.6198 32.1088 88.242 32.9254 88.242 34.2088L88.2031 35.0254ZM100.414 29.3865C97.1865 29.3865 95.0476 31.3699 95.0476 34.5588V39.3421C95.0476 42.531 97.1865 44.5143 100.414 44.5143C103.564 44.5143 105.353 42.9977 105.703 40.3921C105.781 40.1199 105.586 39.8088 105.275 39.7699C105.236 39.731 105.159 39.731 105.12 39.731H103.098C102.709 39.731 102.359 40.0032 102.281 40.3921C102.086 41.2088 101.503 41.7921 100.375 41.7921C99.2476 41.7921 98.392 41.1699 98.392 39.6921V37.7477H105.12C105.47 37.7477 105.781 37.4754 105.781 37.1254V37.0865V34.3254C105.82 31.3699 103.564 29.3865 100.414 29.3865ZM102.398 35.0254H98.4309V34.2088H98.4698C98.4698 32.9254 99.092 32.1088 100.453 32.1088C101.814 32.1088 102.436 32.9254 102.436 34.2088L102.398 35.0254ZM52.8531 38.9532H50.792C50.4031 38.9143 50.092 39.2254 50.0531 39.5754V39.8477C50.0531 40.9754 49.2365 41.5588 48.0698 41.5588C46.9031 41.5588 46.0865 40.9754 46.0865 39.8477V34.0532C46.0865 32.9254 46.9031 32.3421 48.0698 32.3421C49.2365 32.3421 50.0531 32.9254 50.0531 34.0532C50.092 34.4421 50.3642 34.7143 50.7531 34.6754H50.792H52.8142C53.2809 34.6754 53.3976 34.3643 53.3976 33.9754C53.1253 30.7477 51.1809 29.3477 48.0698 29.3477C44.6865 29.3477 42.7031 31.0199 42.7031 34.8699V38.9532C42.7031 42.8421 44.6865 44.4754 48.0698 44.4754C51.2587 44.4754 53.2031 42.9977 53.4365 39.5754C53.4753 39.2643 53.3198 38.9532 52.8531 38.9532ZM77.5476 29.4254C76.2642 29.6199 75.4087 30.3199 74.7087 31.6032H74.6698V30.3588C74.6698 30.0088 74.3976 29.6977 74.0476 29.6977H74.0087H72.0253C71.6753 29.6977 71.3642 29.9699 71.3642 30.3199V30.3588V43.6588C71.3642 44.0088 71.6365 44.3199 71.9865 44.3199H72.0253H74.0865C74.4365 44.3199 74.7476 44.0477 74.7476 43.6977V43.6588V34.3254C74.7087 33.4699 75.4087 32.731 76.3031 32.731C76.342 32.731 76.3809 32.731 76.4198 32.731C76.7698 32.731 77.1198 32.8088 77.4309 32.8865C77.4698 32.9254 77.5087 32.9254 77.5087 32.9254C77.742 33.0421 78.0531 32.8865 78.1309 32.6532C78.1698 32.5754 78.1698 32.5365 78.1698 32.4588V30.0477C78.2087 29.7754 78.0142 29.5032 77.7031 29.4643C77.6254 29.3865 77.5865 29.3865 77.5476 29.4254ZM116.048 29.4254C114.764 29.6199 113.909 30.3199 113.209 31.6032H113.17V30.3588C113.17 30.0088 112.898 29.6977 112.548 29.6977H112.509H110.525C110.175 29.6977 109.864 29.9699 109.864 30.3199V30.3588V43.6588C109.864 44.0088 110.136 44.3199 110.486 44.3199H110.525H112.586C112.936 44.3199 113.248 44.0477 113.248 43.6977V43.6588V34.3254C113.209 33.4699 113.909 32.731 114.803 32.731C114.842 32.731 114.881 32.731 114.92 32.731C115.27 32.731 115.62 32.8088 115.931 32.8865C115.97 32.9254 116.009 32.9254 116.009 32.9254C116.242 33.0421 116.553 32.8865 116.631 32.6532C116.67 32.5754 116.67 32.5365 116.67 32.4588V30.0477C116.709 29.7365 116.475 29.4643 116.203 29.4643C116.125 29.3865 116.086 29.4254 116.048 29.4254ZM67.3198 39.3421V33.8199C67.3198 31.2143 65.9587 29.3865 62.342 29.3865C59.8142 29.3865 57.5198 30.5143 57.0142 33.2365C56.9753 33.5865 57.1309 33.9365 57.5976 33.9365H59.542C59.9698 33.9754 60.3587 33.7032 60.4365 33.2754C60.7087 32.5365 61.4087 32.1088 62.1865 32.1088C63.1587 32.1088 63.9365 32.6143 63.9365 33.8588V34.6754L59.5031 36.231C57.3642 37.0088 56.6642 38.5643 56.6642 40.0421C56.6642 42.9588 58.6087 44.5532 61.992 44.5532C65.3753 44.5532 67.3198 42.9977 67.3198 40.0421H67.2809V39.3421H67.3198ZM63.9365 40.0421C63.9365 41.2088 63.1587 41.9088 61.992 41.9088C60.8253 41.9088 60.0476 41.2088 60.0476 40.0421C60.0087 39.2254 60.5531 38.4865 61.3698 38.2143C62.0698 37.981 63.9365 37.3199 63.9365 37.3199V40.0421Z" fill="#231815"/>
<path d="M120.324 28.1807C120.012 28.1807 119.74 28.0641 119.507 27.8307C119.04 27.3641 119.04 26.6252 119.507 26.1974L123.901 21.803C124.135 21.5696 124.407 21.4529 124.718 21.4529H136.035C136.968 21.4529 137.707 20.7141 137.707 19.8196C137.707 19.8196 137.707 19.8196 137.707 19.7807V4.41962C137.707 3.48628 136.968 2.7474 136.074 2.7474C136.074 2.7474 136.074 2.7474 136.035 2.7474H106.674C105.74 2.7474 105.001 3.48628 105.001 4.38073C105.001 4.38073 105.001 4.38073 105.001 4.41962V19.7807C105.001 20.7141 105.74 21.4529 106.635 21.4529C106.635 21.4529 106.635 21.4529 106.674 21.4529H117.99C118.612 21.4529 119.157 21.9974 119.157 22.6196C119.157 23.2418 118.612 23.7863 117.99 23.7863H106.674C104.457 23.7863 102.668 21.9974 102.668 19.7807V4.41962C102.668 2.20295 104.457 0.414062 106.674 0.414062H135.996C138.212 0.414062 140.001 2.20295 140.001 4.41962V19.7807C140.001 21.9974 138.212 23.7863 135.996 23.7863H125.185L121.14 27.8696C120.946 28.0641 120.635 28.1807 120.324 28.1807Z" fill="#0098D8"/>
<path d="M41.1445 54.5482H43.089C43.089 54.8204 43.0501 55.1315 42.9334 55.4037C42.7779 55.9093 42.389 56.2593 41.9223 56.4537C41.6501 56.5315 41.339 56.5704 41.0668 56.5704C40.7168 56.6093 40.3668 56.4926 40.0556 56.3371C39.7834 56.1815 39.5501 55.9482 39.3945 55.7149C39.2001 55.4426 39.0834 55.1315 39.0056 54.8204C38.9279 54.5093 38.889 54.1204 38.889 53.7704C38.889 53.4204 38.9279 53.0704 39.0056 52.7204C39.0834 52.4093 39.2001 52.0982 39.3945 51.826C39.5501 51.5537 39.8223 51.3204 40.0556 51.2037C40.3668 51.0482 40.7168 50.9704 41.0668 50.9704C41.3001 50.9704 41.5334 51.0093 41.7279 51.0482C41.9223 51.0871 42.1168 51.2037 42.3112 51.3204C42.5056 51.4371 42.6223 51.5926 42.739 51.7871C42.8556 51.9815 42.9334 52.2149 42.9723 52.4093H44.2168C44.1779 52.0204 44.0612 51.6315 43.8668 51.3204C43.6723 51.0093 43.439 50.7371 43.1668 50.5426C42.8945 50.3482 42.5834 50.1537 42.2334 50.076C41.8445 49.9593 41.4945 49.9204 41.1056 49.9204C40.6001 49.9204 40.0945 50.0371 39.6279 50.2315C39.2001 50.426 38.8501 50.6982 38.539 51.0482C38.2668 51.4371 38.0334 51.826 37.8779 52.2537C37.5668 53.1871 37.5668 54.2371 37.8779 55.2093C38.0334 55.676 38.2668 56.0649 38.539 56.4149C38.8112 56.7649 39.2001 57.0371 39.6279 57.2315C40.0945 57.426 40.5612 57.5426 41.1056 57.5426C41.5334 57.5426 41.9223 57.4649 42.2723 57.3093C42.6612 57.1149 43.0112 56.8426 43.2834 56.4926L43.4779 57.3482H44.2945V53.5371H41.1834L41.1445 54.5482ZM52.889 55.4815C52.889 55.2482 52.8501 54.976 52.7723 54.7426C52.6945 54.5871 52.6168 54.4315 52.5001 54.276C52.3834 54.1593 52.3056 54.0815 52.1501 54.0037C52.0334 53.9649 51.9168 53.926 51.8001 53.8871V53.8482C51.9168 53.8093 51.9945 53.7704 52.0723 53.7315C52.2279 53.6537 52.3445 53.5371 52.5001 53.4204C52.6556 53.2649 52.7723 53.0704 52.8501 52.876C52.9667 52.6037 53.0056 52.2926 53.0056 52.0204C53.0445 51.476 52.8112 50.9315 52.4223 50.5815C51.9945 50.2315 51.4112 50.076 50.5945 50.076H47.1334V57.426H48.4168V54.4315H50.2834C50.5168 54.3926 50.789 54.4704 51.0223 54.5482C51.2168 54.626 51.3723 54.7426 51.489 54.8982C51.6056 55.0926 51.6834 55.2871 51.7223 55.4815C51.7612 55.7537 51.8001 56.0649 51.8001 56.3371C51.8001 56.5315 51.8001 56.726 51.839 56.8815C51.8779 57.0371 51.9168 57.2315 51.9945 57.3871H53.3556C53.2001 57.1926 53.0834 56.9204 53.0445 56.6482C52.9279 56.2593 52.889 55.8704 52.889 55.4815ZM51.4112 53.1482C51.139 53.3426 50.8279 53.4593 50.4779 53.4204H48.3779V51.126H50.439C50.5945 51.126 50.7501 51.1649 50.9056 51.1649C51.0612 51.2037 51.1779 51.2426 51.3334 51.3204C51.4501 51.3982 51.5668 51.5149 51.6056 51.6704C51.6834 51.8649 51.7223 52.0593 51.7223 52.2537C51.7612 52.6037 51.6445 52.9149 51.4112 53.1482ZM61.1334 51.0482C60.8612 50.6982 60.4723 50.426 60.0445 50.2315C59.5779 50.0371 59.1112 49.9204 58.5668 49.9204C57.5945 49.8815 56.6612 50.3093 56.0001 51.0482C55.7279 51.4371 55.4945 51.826 55.339 52.2537C55.0279 53.1871 55.0279 54.2371 55.339 55.2093C55.4945 55.676 55.7279 56.0649 56.0001 56.4149C56.2723 56.7649 56.6612 57.0371 57.089 57.2315C58.0223 57.6593 59.0723 57.6593 60.0056 57.2315C60.4334 57.0371 60.7834 56.7649 61.0945 56.4149C61.3668 56.0649 61.639 55.6371 61.7556 55.2093C61.9112 54.7426 61.989 54.2371 61.989 53.7315C61.989 53.226 61.9112 52.7593 61.7556 52.2537C61.6779 51.826 61.4445 51.3982 61.1334 51.0482ZM60.6668 54.7815C60.589 55.0926 60.4723 55.4037 60.2779 55.676C60.1223 55.9482 59.8501 56.1815 59.6168 56.2982C59.3056 56.4537 58.9556 56.5315 58.6056 56.5315C58.2556 56.5704 57.9056 56.4537 57.5945 56.2982C57.3223 56.1426 57.089 55.9093 56.9334 55.676C56.739 55.4037 56.6223 55.0926 56.5445 54.7815C56.4667 54.4704 56.4279 54.0815 56.4279 53.7315C56.4279 53.3815 56.4667 53.0315 56.5445 52.6815C56.6223 52.3704 56.739 52.0593 56.9334 51.7871C57.089 51.5149 57.3612 51.2815 57.5945 51.1649C57.9056 51.0093 58.2556 50.9315 58.6056 50.9315C58.9556 50.8926 59.3056 51.0093 59.6168 51.1649C59.889 51.3204 60.1223 51.5537 60.2779 51.7871C60.4723 52.0593 60.589 52.3704 60.6668 52.6815C60.7445 52.9926 60.7834 53.3815 60.7834 53.7315C60.7834 54.1204 60.7445 54.4704 60.6668 54.7815ZM69.339 54.3537C69.339 54.5871 69.3001 54.8593 69.3001 55.0926C69.2612 55.326 69.1834 55.5593 69.1056 55.7926C68.989 55.9871 68.7945 56.1815 68.6001 56.2982C67.9779 56.5315 67.2779 56.5315 66.6556 56.2982C66.4223 56.1815 66.2668 56.026 66.1501 55.7926C66.0334 55.5982 65.9556 55.3649 65.9556 55.0926C65.9556 54.8204 65.9168 54.5871 65.9168 54.3537V50.1149H64.6334V54.7815C64.5945 55.2093 64.7112 55.6371 64.8279 56.026C64.9834 56.3371 65.1779 56.6482 65.4501 56.8815C65.7223 57.1149 66.0334 57.3093 66.3834 57.426C66.8112 57.5426 67.2001 57.5815 67.6279 57.5815C68.0556 57.6204 68.4834 57.5426 68.8723 57.426C69.2223 57.3093 69.5334 57.1537 69.8056 56.8815C70.0779 56.6482 70.3112 56.3371 70.4279 56.026C70.5834 55.6371 70.6612 55.2093 70.6223 54.7815V50.1149H69.339V54.3537ZM79.0612 51.6315C78.9834 51.3593 78.8668 51.126 78.6723 50.8926C78.4779 50.6593 78.2056 50.4649 77.8945 50.3482C77.4668 50.1926 77.039 50.1149 76.6112 50.1149H73.3834V57.426H74.6668V54.626H76.6112C77.039 54.6649 77.4668 54.5482 77.8945 54.3926C78.1668 54.276 78.439 54.0815 78.6723 53.8482C78.8668 53.6537 78.9834 53.3815 79.0612 53.1093C79.139 52.876 79.1779 52.6426 79.1779 52.3704C79.1779 52.0982 79.139 51.8649 79.0612 51.6315ZM77.7779 52.9149C77.7001 53.0704 77.5834 53.1871 77.4667 53.3037C77.3501 53.4204 77.1945 53.4593 77.039 53.4982C76.8834 53.5371 76.7667 53.576 76.6112 53.576H74.7445V51.1649H76.6501C76.8056 51.1649 76.9612 51.1649 77.1168 51.2037C77.2723 51.2426 77.389 51.3204 77.5056 51.3982C77.6223 51.5149 77.7001 51.6315 77.7779 51.7871C77.8556 51.9815 77.8945 52.176 77.8945 52.3704C77.8945 52.526 77.8556 52.7204 77.7779 52.9149Z" fill="#231815"/>
</g>
<defs>
<clipPath id="clip0_2006_20255">
<rect width="140" height="58" fill="white"/>
</clipPath>
</defs>
</svg>
